<?xml version="1.0" standalone="no"?>
<!DOCTYPE svg PUBLIC "-//W3C//DTD SVG 20010904//EN"
 "http://www.w3.org/TR/2001/REC-SVG-20010904/DTD/svg10.dtd">
<svg version="1.0" xmlns="http://www.w3.org/2000/svg"
 width="200.000000pt" height="200.000000pt" viewBox="0 0 200.000000 200.000000"
 preserveAspectRatio="xMidYMid meet">
<metadata>
Created by potrace 1.11, written by Peter Selinger 2001-2013
</metadata>
<g transform="translate(0.000000,200.000000) scale(0.100000,-0.100000)"
fill="#000000" stroke="none">
<path d="M741 1563 c-33 -16 -71 -65 -71 -90 0 -10 76 -13 345 -13 190 0 345
4 345 9 0 21 -49 78 -80 93 -30 16 -66 18 -270 18 -199 0 -240 -3 -269 -17z
m374 -53 c0 -22 -29 -18 -33 3 -3 14 1 18 15 15 10 -2 18 -10 18 -18z m75 0
c0 -11 -7 -20 -15 -20 -8 0 -15 9 -15 20 0 11 7 20 15 20 8 0 15 -9 15 -20z
m80 0 c0 -11 -7 -20 -15 -20 -8 0 -15 9 -15 20 0 11 7 20 15 20 8 0 15 -9 15
-20z"/>
<path d="M660 1288 c0 -151 11 -187 69 -225 33 -22 41 -23 280 -23 228 0 248
2 279 20 62 38 72 68 72 223 l0 137 -350 0 -350 0 0 -132z m402 16 c54 -31 98
-62 98 -69 0 -17 -190 -127 -207 -121 -10 4 -13 34 -13 119 0 104 3 127 19
127 2 0 49 -25 103 -56z"/>
<path d="M150 957 c-40 -20 -50 -53 -50 -162 0 -121 10 -144 70 -166 68 -25
65 -47 -7 -51 l-58 -3 -3 -72 -3 -73 75 0 c65 0 79 3 103 24 27 24 28 28 31
138 3 103 2 116 -18 140 -11 15 -39 33 -61 39 -26 8 -39 18 -39 30 0 15 10 19
53 21 l52 3 3 64 c2 45 -1 67 -10 72 -20 13 -110 10 -138 -4z"/>
<path d="M350 944 c-11 -27 -14 -454 -4 -492 6 -20 12 -23 48 -20 l41 3 3 93
c3 90 3 92 27 92 24 0 24 -2 27 -92 l3 -93 43 -3 42 -3 -2 268 c-3 250 -4 268
-21 271 -10 2 -29 1 -43 -2 -23 -6 -24 -10 -24 -96 0 -89 0 -90 -25 -90 -25 0
-25 1 -25 83 0 91 -8 107 -52 107 -21 0 -31 -6 -38 -26z"/>
<path d="M634 956 c-3 -7 -4 -117 -2 -244 l3 -232 28 -27 c23 -24 36 -28 82
-28 46 0 59 4 82 28 l28 27 0 243 0 242 -31 3 c-17 2 -36 -3 -42 -11 -8 -9
-12 -78 -14 -198 -3 -176 -4 -184 -23 -184 -19 0 -20 8 -23 190 -2 136 -6 191
-15 197 -20 13 -67 9 -73 -6z"/>
<path d="M903 964 c-9 -4 -13 -29 -13 -75 l0 -69 35 0 35 0 2 -192 3 -193 40
0 40 0 3 193 2 192 36 0 35 0 -3 73 -3 72 -100 2 c-55 1 -106 -1 -112 -3z"/>
<path d="M1157 964 c-4 -4 -7 -109 -7 -233 0 -208 2 -229 20 -259 57 -93 192
-59 211 54 12 73 11 402 -1 425 -12 22 -62 26 -79 6 -6 -9 -12 -83 -13 -198
-3 -176 -4 -184 -23 -184 -19 0 -20 8 -25 195 l-5 195 -35 3 c-20 2 -39 0 -43
-4z"/>
<path d="M1435 958 c-3 -7 -4 -128 -3 -268 l3 -255 86 -3 c73 -2 90 0 110 17
23 18 24 25 24 139 0 98 -3 123 -17 138 -13 15 -14 23 -6 38 6 11 8 48 6 88
-7 96 -23 111 -123 116 -57 3 -76 1 -80 -10z m120 -163 c0 -20 -6 -31 -17 -33
-15 -3 -18 4 -18 33 0 29 3 36 18 33 11 -2 17 -13 17 -33z m15 -195 c0 -36 -2
-40 -25 -40 -22 0 -25 4 -25 40 0 36 3 40 25 40 23 0 25 -4 25 -40z"/>
<path d="M1705 958 c-3 -7 -4 -128 -3 -268 l3 -255 98 -3 98 -3 -3 73 -3 73
-52 3 c-48 3 -53 5 -53 27 0 20 6 24 38 27 l37 3 3 68 3 67 -41 0 c-36 0 -40
2 -40 25 0 24 3 25 55 25 l56 0 -3 73 -3 72 -93 3 c-69 2 -94 -1 -97 -10z"/>
</g>
</svg>
