<?xml version="1.0" standalone="no"?>
<!DOCTYPE svg PUBLIC "-//W3C//DTD SVG 20010904//EN"
 "http://www.w3.org/TR/2001/REC-SVG-20010904/DTD/svg10.dtd">
<svg version="1.0" xmlns="http://www.w3.org/2000/svg"
 width="200.000000pt" height="200.000000pt" viewBox="0 0 200.000000 200.000000"
 preserveAspectRatio="xMidYMid meet">
<metadata>
Created by potrace 1.11, written by Peter Selinger 2001-2013
</metadata>
<g transform="translate(0.000000,200.000000) scale(0.100000,-0.100000)"
fill="#000000" stroke="none">
<path d="M726 1549 c-23 -18 -56 -67 -56 -84 0 -3 153 -5 340 -5 231 0 340 3
340 10 0 6 -7 24 -15 40 -29 56 -49 60 -328 60 -243 0 -256 -1 -281 -21z m392
-36 c5 -17 -26 -29 -40 -15 -6 6 -7 15 -3 22 9 14 37 9 43 -7z m80 0 c5 -17
-26 -29 -40 -15 -6 6 -7 15 -3 22 9 14 37 9 43 -7z m80 0 c5 -17 -26 -29 -40
-15 -6 6 -7 15 -3 22 9 14 37 9 43 -7z"/>
<path d="M670 1274 c0 -120 2 -141 20 -170 37 -59 74 -66 341 -62 210 3 237 5
262 22 49 33 57 62 57 211 l0 135 -340 0 -340 0 0 -136z m384 39 c105 -60 119
-72 105 -89 -17 -20 -184 -114 -203 -114 -14 0 -16 16 -16 118 0 65 3 122 7
125 12 13 26 7 107 -40z"/>
<path d="M131 934 c-27 -34 -34 -76 -30 -173 5 -91 19 -115 81 -131 31 -9 38
-15 38 -35 0 -24 -3 -25 -60 -25 l-60 0 0 -65 0 -65 79 0 c90 0 104 8 121 68
13 48 13 147 -1 195 -8 30 -18 41 -47 54 -61 26 -67 30 -67 44 0 10 16 15 53
17 l52 3 0 70 0 69 -69 0 c-63 0 -71 -2 -90 -26z"/>
<path d="M350 700 l0 -260 40 0 40 0 0 90 0 90 35 0 35 0 0 -90 0 -90 40 0 40
0 0 260 0 260 -40 0 -40 0 0 -90 0 -90 -35 0 -35 0 0 90 0 90 -40 0 -40 0 0
-260z"/>
<path d="M630 740 c0 -236 7 -277 50 -300 31 -17 107 -14 135 4 37 25 45 75
45 304 l0 212 -40 0 -40 0 0 -179 c0 -99 -3 -186 -6 -195 -8 -21 -50 -21 -58
0 -3 9 -6 96 -6 195 l0 179 -40 0 -40 0 0 -220z"/>
<path d="M896 945 c-8 -21 -8 -89 0 -109 4 -10 18 -16 35 -16 l29 0 0 -190 0
-190 45 0 45 0 0 189 0 190 33 3 32 3 0 65 0 65 -106 3 c-91 2 -108 0 -113
-13z"/>
<path d="M1154 947 c-12 -31 1 -441 14 -468 19 -35 48 -51 97 -51 105 0 115
28 115 312 l0 220 -40 0 -40 0 -2 -192 -3 -193 -27 -3 -28 -3 -2 193 -3 193
-38 3 c-26 2 -39 -1 -43 -11z"/>
<path d="M1437 953 c-4 -3 -7 -120 -7 -260 l0 -253 93 0 c128 0 132 5 132 150
0 80 -4 111 -15 125 -12 14 -14 39 -12 111 4 83 2 94 -17 113 -18 18 -33 21
-94 21 -41 0 -77 -3 -80 -7z m121 -156 c3 -34 1 -37 -22 -37 -23 0 -26 4 -26
33 0 38 7 49 30 45 9 -2 16 -16 18 -41z m17 -192 c0 -38 -2 -40 -32 -43 -32
-3 -33 -2 -33 36 0 46 6 54 40 50 22 -3 25 -8 25 -43z"/>
<path d="M1707 953 c-4 -3 -7 -120 -7 -260 l0 -253 100 0 100 0 0 65 0 64 -57
3 c-57 3 -58 3 -58 33 0 28 3 30 43 33 l43 3 -3 62 -3 62 -42 3 c-38 3 -43 6
-43 27 0 22 4 24 58 27 l57 3 3 68 3 67 -94 0 c-51 0 -97 -3 -100 -7z"/>
</g>
</svg>
